<svg data-rendered="assets__star" width="44" height="44" viewBox="0 0 44 44" aria-hidden="true" fill="none" xmlns="http://www.w3.org/2000/svg">
    <g class="assets__star" fill="oklch(0.4377 0.1356 287.3)">
        <path d="M25.9626 0.484133C24.8823 0.254505 23.8203 0.944101 23.5907 2.02442L15.2739 41.1507C15.0443 42.231 15.7339 43.2929 16.8142 43.5226C17.8946 43.7522 18.9565 43.0626 19.1861 41.9823L27.5029 2.85603C27.7326 1.7757 27.043 0.713763 25.9626 0.484133Z"/>
        <path d="M43.0932 26.5776C43.3229 25.4973 42.6332 24.4354 41.5529 24.2058L2.4267 15.8889C1.34638 15.6593 0.284435 16.3489 0.0548065 17.4292C-0.174819 18.5095 0.514778 19.5715 1.59509 19.8012L40.7213 28.1179C41.8017 28.3476 42.8636 27.6579 43.0932 26.5776Z"/>
        <path d="M36.7072 26.7768C36.652 27.039 36.4017 27.2098 36.1366 27.171C32.4312 26.6283 28.8525 26.6192 25.7113 28.6593C22.5702 30.6994 21.137 33.9753 20.1271 37.5813C20.0548 37.8395 19.7967 37.9988 19.5346 37.9425L16.5902 37.3099C16.3301 37.254 16.1595 37.0057 16.1966 36.7422C16.7182 33.028 16.8517 29.4586 14.7921 26.2864C12.7324 23.1141 9.42137 21.7661 5.81647 20.7298C5.56087 20.6563 5.40358 20.3998 5.4583 20.1395L6.08607 17.1536C6.14128 16.891 6.3923 16.7196 6.65775 16.7589C10.3609 17.3069 13.9241 17.3835 17.0648 15.3444C20.2061 13.3048 21.6464 9.97221 22.6576 6.3619C22.7298 6.10418 22.9872 5.94532 23.249 6.00096L26.1934 6.6268C26.4546 6.68234 26.6259 6.93132 26.588 7.1957C26.0534 10.9217 25.902 14.5658 27.9614 17.7478C30.021 20.9299 33.3617 22.1707 36.9762 23.1999C37.2327 23.273 37.3906 23.5307 37.3357 23.7916L36.7072 26.7768Z"/>
    </g>
    <style>
        @media (prefers-color-scheme: dark) {
            .assets__star { fill: oklch(0.9738 0.0133 290.76); }
        }
    </style>
</svg>
